<svg width="80" height="91" viewBox="0 0 80 91" fill="none" xmlns="http://www.w3.org/2000/svg">
<circle cx="40" cy="45" r="39.5" fill="#F3EFE7" stroke="#FF3C00"/>
<path d="M39.18 69.84C34.56 69.84 30.5233 68.79 27.07 66.69C23.6167 64.59 20.9333 61.6733 19.02 57.94C17.1067 54.16 16.15 49.7733 16.15 44.78C16.15 39.74 17.13 35.3067 19.09 31.48C21.0967 27.6067 23.92 24.5967 27.56 22.45C31.2467 20.2567 35.61 19.16 40.65 19.16C46.39 19.16 51.15 20.5367 54.93 23.29C58.71 26.0433 61.16 29.8467 62.28 34.7H52.27C51.5233 32.4133 50.17 30.64 48.21 29.38C46.25 28.0733 43.73 27.42 40.65 27.42C35.75 27.42 31.97 28.9833 29.31 32.11C26.65 35.19 25.32 39.4367 25.32 44.85C25.32 50.2633 26.6267 54.4633 29.24 57.45C31.9 60.39 35.4933 61.86 40.02 61.86C44.4533 61.86 47.79 60.67 50.03 58.29C52.3167 55.8633 53.6933 52.69 54.16 48.77H41.77V42.05H63.19V69H54.93L54.23 62.56C52.6433 64.8933 50.66 66.69 48.28 67.95C45.9 69.21 42.8667 69.84 39.18 69.84Z" fill="#FF3C00"/>
</svg>
